{
  "accessors": [
    {
      "bufferView": 2,
      "componentType": 5126,
      "count": 1580,
      "max": [
        -0.00884389877319336,
        1.8569066524505615,
        0.04876735806465149
      ],
      "min": [
        -0.10111522674560547,
        1.8145253658294678,
        0.007721126079559326
      ],
      "type": "VEC3"
    },
    {
      "bufferView": 2,
      "byteOffset": 18960,
      "componentType": 5126,
      "count": 1580,
      "max": [
        0.9963518977165222,
        0.997588038444519,
        0.9997457265853882
      ],
      "min": [
        -0.9963518977165222,
        -0.9975868463516235,
        -0.9980733394622803
      ],
      "type": "VEC3"
    },
    {
      "bufferView": 1,
      "componentType": 5126,
      "count": 1580,
      "max": [
        1.000000238418579,
        1.0
      ],
      "min": [
        0.0,
        0.0
      ],
      "type": "VEC2"
    },
    {
      "bufferView": 0,
      "componentType": 5125,
      "count": 8448,
      "type": "SCALAR"
    },
    {
      "bufferView": 2,
      "byteOffset": 37920,
      "componentType": 5126,
      "count": 16090,
      "max": [
        0.26349449157714844,
        1.9667669534683228,
        0.13924893736839294
      ],
      "min": [
        -0.4840667247772217,
        -0.01192166656255722,
        -0.1968410760164261
      ],
      "type": "VEC3"
    },
    {
      "bufferView": 2,
      "byteOffset": 231000,
      "componentType": 5126,
      "count": 16090,
      "max": [
        0.9999176263809204,
        0.9999662637710571,
        0.9999555349349976
      ],
      "min": [
        -0.9999374151229858,
        -0.999932050704956,
        -0.9999485015869141
      ],
      "type": "VEC3"
    },
    {
      "bufferView": 3,
      "componentType": 5126,
      "count": 16090,
      "max": [
        0.9999991655349731,
        0.9999924898147583,
        0.999880850315094,
        1.0
      ],
      "min": [
        -0.9999784231185913,
        -0.9991207718849182,
        -0.9999894499778748,
        -1.0
      ],
      "type": "VEC4"
    },
    {
      "bufferView": 1,
      "byteOffset": 12640,
      "componentType": 5126,
      "count": 16090,
      "max": [
        0.9952954649925232,
        0.9956278800964355
      ],
      "min": [
        -0.00020232796669006348,
        0.0046575069427490234
      ],
      "type": "VEC2"
    },
    {
      "bufferView": 0,
      "byteOffset": 33792,
      "componentType": 5125,
      "count": 85842,
      "type": "SCALAR"
    },
    {
      "bufferView": 2,
      "byteOffset": 424080,
      "componentType": 5126,
      "count": 5245,
      "max": [
        -0.016452550888061523,
        1.7966960668563843,
        0.03982734680175781
      ],
      "min": [
        -0.08557963371276855,
        1.7540779113769531,
        -0.021138638257980347
      ],
      "type": "VEC3"
    },
    {
      "bufferView": 2,
      "byteOffset": 487020,
      "componentType": 5126,
      "count": 5245,
      "max": [
        0.9996620416641235,
        0.99980628490448,
        0.9995934963226318
      ],
      "min": [
        -0.9998899698257446,
        -0.9998427629470825,
        -0.9999358654022217
      ],
      "type": "VEC3"
    },
    {
      "bufferView": 1,
      "byteOffset": 141360,
      "componentType": 5126,
      "count": 5245,
      "max": [
        0.0,
        0.0
      ],
      "min": [
        0.0,
        0.0
      ],
      "type": "VEC2"
    },
    {
      "bufferView": 0,
      "byteOffset": 377160,
      "componentType": 5125,
      "count": 31008,
      "type": "SCALAR"
    },
    {
      "bufferView": 2,
      "byteOffset": 549960,
      "componentType": 5126,
      "count": 637,
      "max": [
        -0.01640772819519043,
        1.8074463605880737,
        0.040852367877960205
      ],
      "min": [
        -0.08762955665588379,
        1.7433284521102905,
        -0.028270550072193146
      ],
      "type": "VEC3"
    },
    {
      "bufferView": 2,
      "byteOffset": 557604,
      "componentType": 5126,
      "count": 637,
      "max": [
        0.9990463852882385,
        0.9974230527877808,
        0.9972785711288452
      ],
      "min": [
        -0.9990482926368713,
        -0.9999464750289917,
        -0.8199286460876465
      ],
      "type": "VEC3"
    },
    {
      "bufferView": 1,
      "byteOffset": 183320,
      "componentType": 5126,
      "count": 637,
      "max": [
        0.0,
        0.0
      ],
      "min": [
        0.0,
        0.0
      ],
      "type": "VEC2"
    },
    {
      "bufferView": 0,
      "byteOffset": 501192,
      "componentType": 5125,
      "count": 3504,
      "type": "SCALAR"
    },
    {
      "bufferView": 2,
      "byteOffset": 565248,
      "componentType": 5126,
      "count": 527,
      "max": [
        0.23862791061401367,
        1.1798745393753052,
        0.9440910816192627
      ],
      "min": [
        0.1597292423248291,
        0.2505146861076355,
        -0.09454776346683502
      ],
      "type": "VEC3"
    },
    {
      "bufferView": 2,
      "byteOffset": 571572,
      "componentType": 5126,
      "count": 527,
      "max": [
        0.998288631439209,
        0.997844398021698,
        0.9966529011726379
      ],
      "min": [
        -0.998288631439209,
        -0.9998711347579956,
        -0.9966529011726379
      ],
      "type": "VEC3"
    },
    {
      "bufferView": 3,
      "byteOffset": 257440,
      "componentType": 5126,
      "count": 527,
      "max": [
        0.9992374777793884,
        0.9340915083885193,
        0.9694114923477173,
        1.0
      ],
      "min": [
        -0.9993196725845337,
        -0.8425722122192383,
        -0.8625219464302063,
        1.0
      ],
      "type": "VEC4"
    },
    {
      "bufferView": 1,
      "byteOffset": 188416,
      "componentType": 5126,
      "count": 527,
      "max": [
        0.9939931631088257,
        0.9942079782485962
      ],
      "min": [
        0.0032397806644439697,
        0.0017501115798950195
      ],
      "type": "VEC2"
    },
    {
      "bufferView": 0,
      "byteOffset": 515208,
      "componentType": 5125,
      "count": 2148,
      "type": "SCALAR"
    },
    {
      "bufferView": 2,
      "byteOffset": 577896,
      "componentType": 5126,
      "count": 4,
      "max": [
        1.0,
        0.0,
        1.0
      ],
      "min": [
        -1.0,
        0.0,
        -1.0
      ],
      "type": "VEC3"
    },
    {
      "bufferView": 2,
      "byteOffset": 577944,
      "componentType": 5126,
      "count": 4,
      "max": [
        0.0,
        1.0,
        -0.0
      ],
      "min": [
        0.0,
        1.0,
        -0.0
      ],
      "type": "VEC3"
    },
    {
      "bufferView": 1,
      "byteOffset": 192632,
      "componentType": 5126,
      "count": 4,
      "max": [
        1.0,
        1.0
      ],
      "min": [
        0.0,
        0.0
      ],
      "type": "VEC2"
    },
    {
      "bufferView": 0,
      "byteOffset": 523800,
      "componentType": 5125,
      "count": 6,
      "type": "SCALAR"
    }
  ],
  "asset": {
    "extras": {
      "author": "Isi.Izzy (https://sketchfab.com/Isi.Izzy)",
      "license": "CC-BY-4.0 (http://creativecommons.org/licenses/by/4.0/)",
      "source": "https://sketchfab.com/3d-models/sci-fi-android-test-object-f21-4f73457d06054732b8ac6dae3cc5221d",
      "title": "Sci-Fi Android - Test Object F21"
    },
    "generator": "Sketchfab-10.62.0",
    "version": "2.0"
  },
  "bufferViews": [
    {
      "buffer": 0,
      "byteLength": 523824,
      "name": "floatBufferViews",
      "target": 34963
    },
    {
      "buffer": 0,
      "byteLength": 192664,
      "byteOffset": 523824,
      "byteStride": 8,
      "name": "floatBufferViews",
      "target": 34962
    },
    {
      "buffer": 0,
      "byteLength": 577992,
      "byteOffset": 716488,
      "byteStride": 12,
      "name": "floatBufferViews",
      "target": 34962
    },
    {
      "buffer": 0,
      "byteLength": 265872,
      "byteOffset": 1294480,
      "byteStride": 16,
      "name": "floatBufferViews",
      "target": 34962
    }
  ],
  "buffers": [
    {
      "byteLength": 1560352,
      "uri": "scene.bin"
    }
  ],
  "images": [
    {
      "uri": "textures/Material.006_emissive.png"
    },
    {
      "uri": "textures/Material.003_baseColor.png"
    },
    {
      "uri": "textures/Material.003_metallicRoughness.png"
    },
    {
      "uri": "textures/Material.003_normal.png"
    },
    {
      "uri": "textures/Material.002_baseColor.png"
    },
    {
      "uri": "textures/Material.002_metallicRoughness.png"
    },
    {
      "uri": "textures/Material.002_normal.png"
    }
  ],
  "materials": [
    {
      "emissiveFactor": [
        1.0,
        1.0,
        1.0
      ],
      "emissiveTexture": {
        "index": 0
      },
      "name": "Material.006",
      "pbrMetallicRoughness": {
        "baseColorFactor": [
          0.0237461,
          0.0227894,
          0.0223723,
          1.0
        ],
        "roughnessFactor": 0.315152
      }
    },
    {
      "doubleSided": true,
      "name": "Material.003",
      "normalTexture": {
        "index": 3
      },
      "pbrMetallicRoughness": {
        "baseColorTexture": {
          "index": 1
        },
        "metallicRoughnessTexture": {
          "index": 2
        }
      }
    },
    {
      "doubleSided": true,
      "name": "teeth.002",
      "pbrMetallicRoughness": {
        "baseColorFactor": [
          0.360096,
          0.360096,
          0.360096,
          1.0
        ],
        "roughnessFactor": 0.0823059
      }
    },
    {
      "doubleSided": true,
      "name": "zahnfleisch.002",
      "pbrMetallicRoughness": {
        "baseColorFactor": [
          0.00601485,
          0.00634144,
          0.00634144,
          1.0
        ],
        "metallicFactor": 0.0,
        "roughnessFactor": 0.737443
      }
    },
    {
      "doubleSided": true,
      "name": "Material.002",
      "normalTexture": {
        "index": 6
      },
      "pbrMetallicRoughness": {
        "baseColorTexture": {
          "index": 4
        },
        "metallicRoughnessTexture": {
          "index": 5
        },
        "roughnessFactor": 0.7366257400535217
      }
    },
    {
      "name": "Material.007",
      "pbrMetallicRoughness": {
        "baseColorFactor": [
          0.7999999999999999,
          0.04797200000000005,
          0.0,
          1.0
        ],
        "metallicFactor": 0.0,
        "roughnessFactor": 0.906205621598834
      }
    }
  ],
  "meshes": [
    {
      "name": "Object_0",
      "primitives": [
        {
          "attributes": {
            "NORMAL": 1,
            "POSITION": 0,
            "TEXCOORD_0": 2
          },
          "indices": 3,
          "material": 0,
          "mode": 4
        }
      ]
    },
    {
      "name": "Object_1",
      "primitives": [
        {
          "attributes": {
            "NORMAL": 5,
            "POSITION": 4,
            "TANGENT": 6,
            "TEXCOORD_0": 7
          },
          "indices": 8,
          "material": 1,
          "mode": 4
        }
      ]
    },
    {
      "name": "Object_2",
      "primitives": [
        {
          "attributes": {
            "NORMAL": 10,
            "POSITION": 9,
            "TEXCOORD_0": 11
          },
          "indices": 12,
          "material": 2,
          "mode": 4
        }
      ]
    },
    {
      "name": "Object_3",
      "primitives": [
        {
          "attributes": {
            "NORMAL": 14,
            "POSITION": 13,
            "TEXCOORD_0": 15
          },
          "indices": 16,
          "material": 3,
          "mode": 4
        }
      ]
    },
    {
      "name": "Object_4",
      "primitives": [
        {
          "attributes": {
            "NORMAL": 18,
            "POSITION": 17,
            "TANGENT": 19,
            "TEXCOORD_0": 20
          },
          "indices": 21,
          "material": 4,
          "mode": 4
        }
      ]
    },
    {
      "name": "Object_5",
      "primitives": [
        {
          "attributes": {
            "NORMAL": 23,
            "POSITION": 22,
            "TEXCOORD_0": 24
          },
          "indices": 25,
          "material": 5,
          "mode": 4
        }
      ]
    }
  ],
  "nodes": [
    {
      "children": [
        1
      ],
      "matrix": [
        1.0,
        0.0,
        0.0,
        0.0,
        0.0,
        2.220446049250313e-16,
        -1.0,
        0.0,
        0.0,
        1.0,
        2.220446049250313e-16,
        0.0,
        0.0,
        0.0,
        0.0,
        1.0
      ],
      "name": "Sketchfab_model"
    },
    {
      "children": [
        2
      ],
      "name": "root"
    },
    {
      "children": [
        3,
        8,
        10
      ],
      "matrix": [
        1.0,
        0.0,
        0.0,
        0.0,
        0.0,
        2.220446049250313e-16,
        1.0,
        0.0,
        0.0,
        -1.0,
        2.220446049250313e-16,
        0.0,
        0.0,
        0.0,
        0.0,
        1.0
      ],
      "name": "GLTF_SceneRootNode"
    },
    {
      "children": [
        4,
        5,
        6,
        7
      ],
      "matrix": [
        1.4475824429443087,
        0.0,
        0.3404068620826805,
        0.0,
        -0.0,
        1.4870681762695313,
        0.0,
        0.0,
        -0.3404068620826805,
        0.0,
        1.4475824429443087,
        0.0,
        0.0,
        0.010158550925552845,
        0.0,
        1.0
      ],
      "name": "model pose 1_0"
    },
    {
      "mesh": 0,
      "name": "Object_4"
    },
    {
      "mesh": 1,
      "name": "Object_5"
    },
    {
      "mesh": 2,
      "name": "Object_6"
    },
    {
      "mesh": 3,
      "name": "Object_7"
    },
    {
      "children": [
        9
      ],
      "matrix": [
        1.4475824429443087,
        0.0,
        0.3404068620826805,
        0.0,
        -0.0,
        1.4870681762695313,
        0.0,
        0.0,
        -0.3404068620826805,
        0.0,
        1.4475824429443087,
        0.0,
        0.0,
        0.010158550925552845,
        0.0,
        1.0
      ],
      "name": "model pose 1.002_1"
    },
    {
      "mesh": 4,
      "name": "Object_9"
    },
    {
      "children": [
        11
      ],
      "matrix": [
        0.5,
        0.0,
        0.0,
        0.0,
        0.0,
        0.5,
        0.0,
        0.0,
        0.0,
        0.0,
        0.5,
        0.0,
        0.0,
        0.0,
        0.0,
        1.0
      ],
      "name": "Plane_2"
    },
    {
      "mesh": 5,
      "name": "Object_11"
    }
  ],
  "samplers": [
    {
      "magFilter": 9729,
      "minFilter": 9987,
      "wrapS": 10497,
      "wrapT": 10497
    }
  ],
  "scene": 0,
  "scenes": [
    {
      "name": "Sketchfab_Scene",
      "nodes": [
        0
      ]
    }
  ],
  "textures": [
    {
      "sampler": 0,
      "source": 0
    },
    {
      "sampler": 0,
      "source": 1
    },
    {
      "sampler": 0,
      "source": 2
    },
    {
      "sampler": 0,
      "source": 3
    },
    {
      "sampler": 0,
      "source": 4
    },
    {
      "sampler": 0,
      "source": 5
    },
    {
      "sampler": 0,
      "source": 6
    }
  ]
}
